<?xml version="1.0" encoding="UTF-8" standalone="no"?>
<!DOCTYPE svg PUBLIC "-//W3C//DTD SVG 1.1//EN" "http://www.w3.org/Graphics/SVG/1.1/DTD/svg11.dtd">
<svg version="1.1" xmlns="http://www.w3.org/2000/svg" xmlns:xlink="http://www.w3.org/1999/xlink" preserveAspectRatio="xMidYMid meet" viewBox="0 0 640 640" width="640" height="640"><defs><path d="M94.17 387.33L503.75 266.18L176.08 74.88L176.08 585L94.17 387.33Z" id="c8PmJHL69"></path><mask id="maska5CfJorye" x="58.17" y="38.88" width="481.58" height="582.12" maskUnits="userSpaceOnUse"><rect x="58.17" y="38.88" width="481.58" height="582.12" fill="white"></rect><use xlink:href="#c8PmJHL69" opacity="1" fill="black"></use></mask><path d="" id="ehnWmgs4C"></path><path d="" id="d2QUUKmdD"></path><path d="" id="bamKC2wsj"></path><path d="M179.2 37.72C181.63 33.68 186.87 32.37 190.91 34.8C265.36 79.49 481.41 209.19 555.86 253.88C559.9 256.31 561.21 261.55 558.78 265.59C554.8 272.23 547.23 284.83 543.25 291.47C540.82 295.51 535.58 296.82 531.54 294.39C457.09 249.7 241.04 120 166.59 75.3C162.55 72.88 161.24 67.64 163.67 63.6C167.65 56.96 175.22 44.36 179.2 37.72Z" id="bLBggYU2"></path><path d="M182.98 31.2C189.1 31.14 194.11 36.06 194.17 42.19C195.16 155.1 198.06 482.74 199.05 595.65C199.11 601.78 194.19 606.79 188.06 606.84C180.88 606.91 170.45 607 163.28 607.06C157.15 607.11 152.14 602.19 152.09 596.07C151.09 483.16 148.2 155.52 147.2 42.61C147.15 36.48 152.07 31.47 158.19 31.41C165.37 31.35 175.8 31.26 182.98 31.2Z" id="cqg7HYnST"></path></defs><g><g><g><use xlink:href="#c8PmJHL69" opacity="1" fill="#26a69a" fill-opacity="0"></use><g mask="url(#maska5CfJorye)"><use xlink:href="#c8PmJHL69" opacity="1" fill-opacity="0" stroke="#004d40" stroke-width="36" stroke-opacity="1"></use></g></g><g><g><use xlink:href="#ehnWmgs4C" opacity="1" fill-opacity="0" stroke="#004d40" stroke-width="3" stroke-opacity="1"></use></g></g><g><g><use xlink:href="#d2QUUKmdD" opacity="1" fill-opacity="0" stroke="#004d40" stroke-width="3" stroke-opacity="1"></use></g></g><g><g><use xlink:href="#bamKC2wsj" opacity="1" fill-opacity="0" stroke="#004d40" stroke-width="4" stroke-opacity="1"></use></g></g><g><use xlink:href="#bLBggYU2" opacity="1" fill="#004d40" fill-opacity="1"></use></g><g><use xlink:href="#cqg7HYnST" opacity="1" fill="#00695c" fill-opacity="1"></use><g><use xlink:href="#cqg7HYnST" opacity="1" fill-opacity="0" stroke="#00695c" stroke-width="5" stroke-opacity="1"></use></g></g></g></g></svg>